# Blender v3.3.4 OBJ File: 'Tileset.blend'
# www.blender.org
mtllib TileWindowMiddle.mtl
o WindowMiddle_Plane.012
v 0.375000 0.700000 -0.500000
v 0.500000 1.800000 -0.500000
v 0.500000 0.700000 -0.500000
v 0.500000 1.800000 0.500000
v 0.375000 0.700000 0.500000
v 0.500000 1.950000 -0.500000
v 0.375000 1.950000 -0.500000
v 0.500000 1.950000 0.500000
v 0.375000 1.950000 0.500000
v 0.415433 1.950000 -0.500000
v 0.415433 1.950000 0.500000
v 0.415433 2.500000 -0.500000
v 0.415433 2.500000 0.500000
v 0.500000 0.700000 0.500000
v 0.437500 1.800000 -0.500000
v 0.375000 1.862500 -0.500000
v 0.406250 1.808373 -0.500000
v 0.383373 1.831250 -0.500000
v 0.500000 0.850000 -0.500000
v 0.500000 0.850000 0.500000
v 0.375000 1.862500 0.500000
v 0.437500 1.800000 0.500000
v 0.383373 1.831250 0.500000
v 0.406250 1.808373 0.500000
v 0.437500 0.850000 0.500000
v 0.375000 0.787500 0.500000
v 0.406250 0.841627 0.500000
v 0.383373 0.818750 0.500000
v 0.375000 0.787500 -0.500000
v 0.437500 0.850000 -0.500000
v 0.383373 0.818750 -0.500000
v 0.406250 0.841627 -0.500000
v 0.415433 0.243340 0.500000
v 0.415433 0.700000 -0.500000
v 0.415433 0.700000 0.500000
v 0.415433 0.243339 -0.500000
v 0.405866 0.171194 0.500000
v 0.405866 0.171194 -0.500000
v 0.389645 0.160355 0.500000
v 0.389645 0.160355 -0.500000
v 0.378806 0.144134 0.500000
v 0.378806 0.144134 -0.500000
v 0.375000 0.125000 0.500000
v 0.375000 0.125000 -0.500000
v 0.390433 0.205839 0.500000
v 0.392336 0.191489 -0.500000
v 0.392336 0.191489 0.500000
v 0.397755 0.179323 -0.500000
v 0.397755 0.179323 0.500000
v 0.405866 0.240485 0.500000
v 0.405866 0.240485 -0.500000
v 0.397755 0.232356 0.500000
v 0.397755 0.232356 -0.500000
v 0.392336 0.220190 0.500000
v 0.392336 0.220190 -0.500000
v 0.390433 0.205839 -0.500000
v 0.375000 0.000000 0.500000
v 0.375000 0.000000 -0.500000
vt 1.000000 1.000000
vt 0.000000 1.000000
vt 0.000000 0.000000
vt 1.000000 0.000000
vt -0.500000 2.268832
vt 1.500000 2.268832
vt 1.500000 3.000000
vt -0.500000 3.000000
vt -0.500000 -0.000000
vt 1.500000 0.000001
vt 1.500000 0.607085
vt -0.500000 0.607085
vt 1.000000 0.095000
vt 0.000000 0.095000
vt 0.000000 0.070000
vt 1.000000 0.070000
vt 0.000000 0.880000
vt 1.000000 0.880000
vt 1.000000 0.880000
vt 0.000000 0.880000
vt 1.000000 0.113302
vt 0.000000 0.113302
vt 1.000000 0.120000
vt 0.000000 0.120000
vt 0.000000 1.000000
vt 1.000000 1.000000
vt 1.000000 0.000000
vt 0.000000 0.000000
vt 0.000000 0.930000
vt 1.000000 0.930000
vt 1.000000 0.886699
vt 0.000000 0.886699
vt 1.000000 0.905000
vt 0.000000 0.905000
vt 1.000000 0.120000
vt 0.000000 0.120000
vt 1.000000 0.703518
vt 0.000000 0.703518
vt 0.000000 0.658977
vt 1.000000 0.658977
vt 0.000000 0.592316
vt 1.000000 0.592317
vt 0.000000 0.513685
vt 1.000000 0.513685
vt 1.000000 0.786919
vt 1.000000 0.845893
vt 0.000000 0.845893
vt 0.000000 0.786919
vt 1.000000 0.736924
vt 0.000000 0.736924
vt 1.000000 0.988267
vt 0.000000 0.988267
vt 0.000000 0.954862
vt 1.000000 0.954862
vt 0.000000 0.904866
vt 1.000000 0.904866
vt 1.000000 1.000000
vt 0.000000 0.999997
vt 0.000000 0.000000
vt 1.000000 0.000000
vn -1.0000 0.0000 0.0000
vn -0.9659 0.2588 0.0000
vn 0.0000 -1.0000 0.0000
vn -0.7071 0.7071 0.0000
vn -0.2588 0.9659 0.0000
vn 0.0000 1.0000 0.0000
vn -0.2588 -0.9659 0.0000
vn -0.7071 -0.7071 0.0000
vn -0.9659 -0.2588 0.0000
vn -0.5556 0.8315 0.0000
vn -0.8315 0.5556 -0.0000
vn -0.9808 0.1951 -0.0000
vn -0.9913 -0.1315 0.0000
vn -0.9135 -0.4069 0.0000
vn -0.7079 -0.7063 0.0000
vn -0.7079 0.7063 0.0000
vn -0.9135 0.4069 0.0000
vn -0.9913 0.1315 0.0000
vn -0.2859 0.9583 -0.0000
usemtl GlassTex
s off
f 8/1/1 6/2/1 3/3/1 14/4/1
usemtl WallTex
f 10/5/1 11/6/1 13/7/1 12/8/1
f 36/9/1 33/10/1 35/11/1 34/12/1
usemtl RailTex
f 28/13/2 31/14/2 29/15/2 26/16/2
f 2/17/3 4/18/3 22/19/3 15/20/3
f 27/21/4 32/22/4 31/14/4 28/13/4
f 25/23/5 30/24/5 32/22/5 27/21/5
f 8/1/6 6/2/6 7/25/6 9/26/6
f 5/27/1 26/16/1 29/15/1 1/28/1
f 7/25/1 16/29/1 21/30/1 9/26/1
f 15/20/7 22/19/7 24/31/7 17/32/7
f 17/32/8 24/31/8 23/33/8 18/34/8
f 18/34/9 23/33/9 21/30/9 16/29/9
f 20/35/6 19/36/6 30/24/6 25/23/6
f 5/27/3 1/28/3 3/3/3 14/4/3
f 37/37/10 38/38/10 40/39/10 39/40/10
f 39/40/11 40/39/11 42/41/11 41/42/11
f 41/42/12 42/41/12 44/43/12 43/44/12
f 47/45/13 45/46/13 56/47/13 46/48/13
f 49/49/14 47/45/14 46/48/14 48/50/14
f 37/37/15 49/49/15 48/50/15 38/38/15
f 50/51/16 51/52/16 53/53/16 52/54/16
f 52/54/17 53/53/17 55/55/17 54/56/17
f 54/56/18 55/55/18 56/47/18 45/46/18
f 51/52/19 50/51/19 33/57/19 36/58/19
f 43/44/1 44/43/1 58/59/1 57/60/1
