# Blender v3.3.4 OBJ File: 'Tileset.blend'
# www.blender.org
mtllib TileWindow.mtl
o SingleWindow_Plane.008
v 0.375000 0.700000 -0.500000
v 0.500000 1.800000 -0.350000
v 0.500000 0.700000 -0.500000
v 0.500000 1.800000 0.350000
v 0.375000 0.700000 0.500000
v 0.500000 1.950000 -0.500000
v 0.375000 1.950000 -0.500000
v 0.500000 1.950000 0.500000
v 0.375000 1.950000 0.500000
v 0.415433 1.950000 -0.500000
v 0.415433 1.950000 0.500000
v 0.415433 2.500000 -0.500000
v 0.415433 2.500000 0.500000
v 0.500000 0.700000 0.500000
v 0.437500 1.800000 -0.350000
v 0.375000 1.862500 -0.412500
v 0.406250 1.808373 -0.358373
v 0.383373 1.831250 -0.381250
v 0.500000 0.850000 -0.350000
v 0.500000 0.850000 0.350000
v 0.375000 1.862500 0.412500
v 0.437500 1.800000 0.350000
v 0.383373 1.831250 0.381250
v 0.406250 1.808373 0.358373
v 0.437500 0.850000 0.350000
v 0.375000 0.787500 0.412500
v 0.406250 0.841627 0.358373
v 0.383373 0.818750 0.381250
v 0.375000 0.787500 -0.412500
v 0.437500 0.850000 -0.350000
v 0.383373 0.818750 -0.381250
v 0.406250 0.841627 -0.358373
v 0.415433 0.243340 0.500000
v 0.415433 0.700000 -0.500000
v 0.415433 0.700000 0.500000
v 0.415433 0.243339 -0.500000
v 0.405866 0.171194 0.500000
v 0.405866 0.171194 -0.500000
v 0.389645 0.160355 0.500000
v 0.389645 0.160355 -0.500000
v 0.378806 0.144134 0.500000
v 0.378806 0.144134 -0.500000
v 0.375000 0.125000 0.500000
v 0.375000 0.125000 -0.500000
v 0.390433 0.205839 0.500000
v 0.392336 0.191489 -0.500000
v 0.392336 0.191489 0.500000
v 0.397755 0.179323 -0.500000
v 0.397755 0.179323 0.500000
v 0.405866 0.240485 0.500000
v 0.405866 0.240485 -0.500000
v 0.397755 0.232356 0.500000
v 0.397755 0.232356 -0.500000
v 0.392336 0.220190 0.500000
v 0.392336 0.220190 -0.500000
v 0.390433 0.205839 -0.500000
v 0.375000 0.000000 0.500000
v 0.375000 0.000000 -0.500000
vt 0.000000 0.000000
vt 1.000000 0.000000
vt 1.000000 1.000000
vt 0.000000 1.000000
vt -0.500000 2.268832
vt 1.500000 2.268832
vt 1.500000 3.000000
vt -0.500000 3.000000
vt -0.500000 -0.000000
vt 1.500000 0.000001
vt 1.500000 0.607085
vt -0.500000 0.607085
vt 0.881250 0.095000
vt 0.118750 0.095000
vt 0.087500 0.070000
vt 0.912500 0.070000
vt 0.150000 0.880000
vt 0.850000 0.880000
vt 0.850000 0.880000
vt 0.150000 0.880000
vt 0.858373 0.113302
vt 0.141627 0.113302
vt 0.850000 0.120000
vt 0.150000 0.120000
vt 0.087500 0.930000
vt 0.000000 1.000000
vt 0.000000 0.000000
vt 1.000000 1.000000
vt 0.912500 0.930000
vt 1.000000 0.000000
vt 0.858373 0.886699
vt 0.141627 0.886699
vt 0.881250 0.905000
vt 0.118750 0.905000
vt 0.850000 0.120000
vt 0.150000 0.120000
vt 1.000000 0.703518
vt 0.000000 0.703518
vt 0.000000 0.658976
vt 1.000000 0.658976
vt 0.000000 0.592316
vt 1.000000 0.592317
vt 0.000000 0.513684
vt 1.000000 0.513684
vt 1.000000 0.786919
vt 1.000000 0.845892
vt 0.000000 0.845892
vt 0.000000 0.786919
vt 1.000000 0.736923
vt 0.000000 0.736923
vt 1.000000 0.988267
vt 0.000000 0.988267
vt 0.000000 0.954862
vt 1.000000 0.954862
vt 0.000000 0.904866
vt 1.000000 0.904866
vt 1.000000 1.000000
vt 0.000000 0.999995
vt 0.000000 0.000000
vt 1.000000 0.000000
vn -1.0000 0.0000 0.0000
vn -0.9659 0.2588 0.0000
vn 0.0000 -1.0000 0.0000
vn -0.7071 0.7071 0.0000
vn -0.2588 0.9659 0.0000
vn 0.0000 1.0000 0.0000
vn 0.0000 0.0000 -1.0000
vn -0.2588 -0.9659 0.0000
vn -0.7071 -0.7071 0.0000
vn -0.9659 -0.2588 0.0000
vn 0.0000 0.0000 1.0000
vn -0.9659 0.0000 -0.2588
vn -0.7071 0.0000 -0.7071
vn -0.2588 0.0000 -0.9659
vn -0.2588 -0.0000 0.9659
vn -0.7071 -0.0000 0.7071
vn -0.9659 0.0000 0.2588
vn -0.5556 0.8315 0.0000
vn -0.8315 0.5556 -0.0000
vn -0.9808 0.1951 -0.0000
vn -0.9913 -0.1315 0.0000
vn -0.9135 -0.4069 0.0000
vn -0.7079 -0.7063 0.0000
vn -0.7079 0.7063 0.0000
vn -0.9135 0.4069 0.0000
vn -0.9913 0.1315 0.0000
vn -0.2859 0.9583 -0.0000
usemtl GlassTex
s off
f 3/1/1 14/2/1 8/3/1 6/4/1
usemtl WallTex
f 10/5/1 11/6/1 13/7/1 12/8/1
f 36/9/1 33/10/1 35/11/1 34/12/1
usemtl RailTex
f 28/13/2 31/14/2 29/15/2 26/16/2
f 2/17/3 4/18/3 22/19/3 15/20/3
f 27/21/4 32/22/4 31/14/4 28/13/4
f 25/23/5 30/24/5 32/22/5 27/21/5
f 29/15/1 16/25/1 7/26/1 1/27/1
f 8/3/6 6/4/6 7/26/6 9/28/6
f 21/29/1 26/16/1 5/30/1 9/28/1
f 5/30/1 26/16/1 29/15/1 1/27/1
f 3/1/7 1/27/7 7/26/7 6/4/7
f 7/26/1 16/25/1 21/29/1 9/28/1
f 15/20/8 22/19/8 24/31/8 17/32/8
f 17/32/9 24/31/9 23/33/9 18/34/9
f 18/34/10 23/33/10 21/29/10 16/25/10
f 20/35/6 19/36/6 30/24/6 25/23/6
f 5/30/3 1/27/3 3/1/3 14/2/3
f 14/2/11 8/3/11 9/28/11 5/30/11
f 28/13/12 26/16/12 21/29/12 23/33/12
f 27/21/13 28/13/13 23/33/13 24/31/13
f 25/23/14 27/21/14 24/31/14 22/19/14
f 22/19/7 4/18/7 20/35/7 25/23/7
f 2/17/11 15/20/11 30/24/11 19/36/11
f 32/22/15 30/24/15 15/20/15 17/32/15
f 31/14/16 32/22/16 17/32/16 18/34/16
f 29/15/17 31/14/17 18/34/17 16/25/17
f 37/37/18 38/38/18 40/39/18 39/40/18
f 39/40/19 40/39/19 42/41/19 41/42/19
f 41/42/20 42/41/20 44/43/20 43/44/20
f 47/45/21 45/46/21 56/47/21 46/48/21
f 49/49/22 47/45/22 46/48/22 48/50/22
f 37/37/23 49/49/23 48/50/23 38/38/23
f 50/51/24 51/52/24 53/53/24 52/54/24
f 52/54/25 53/53/25 55/55/25 54/56/25
f 54/56/26 55/55/26 56/47/26 45/46/26
f 51/52/27 50/51/27 33/57/27 36/58/27
f 43/44/1 44/43/1 58/59/1 57/60/1
