# Blender v3.3.4 OBJ File: 'Tileset.blend'
# www.blender.org
mtllib TileEmpty.mtl
o Space_Plane.005
v 0.500000 0.000000 -0.500000
v -0.500000 0.000000 -0.500000
v 0.500000 0.000000 0.500000
v -0.500000 0.000000 0.500000
v -0.500000 2.500000 0.500000
v 0.500000 2.500000 0.500000
v -0.500000 2.500000 -0.500000
v 0.500000 2.500000 -0.500000
vt 0.000000 0.000000
vt 0.500000 0.000000
vt 0.500000 1.000000
vt 0.000000 1.000000
vt 0.500000 0.000000
vt 0.500000 1.000000
vt 1.000000 1.000000
vt 1.000000 0.000000
vn 0.0000 1.0000 0.0000
vn 0.0000 -1.0000 0.0000
usemtl FloorCeilingTex
s off
f 1/1/1 2/2/1 4/3/1 3/4/1
f 8/5/2 6/6/2 5/7/2 7/8/2
