# Blender v3.3.4 OBJ File: 'Tileset.blend'
# www.blender.org
mtllib TileDoorway.mtl
o Doorway_Plane.006
v 0.500000 0.000000 0.500000
v 0.500000 0.000000 -0.500000
v 0.500000 0.000000 -0.350000
v 0.500000 1.800000 -0.350000
v 0.375000 0.000000 -0.500000
v 0.500000 0.000000 0.350000
v 0.500000 1.800000 0.350000
v 0.375000 0.000000 0.500000
v 0.500000 1.950000 -0.500000
v 0.375000 1.950000 -0.500000
v 0.500000 1.950000 0.500000
v 0.375000 1.950000 0.500000
v 0.415433 1.950000 -0.500000
v 0.415433 1.950000 0.500000
v 0.415433 2.500000 -0.500000
v 0.415433 2.500000 0.500000
v 0.437500 0.000000 -0.350000
v 0.375000 0.000000 -0.412500
v 0.406250 0.000000 -0.358373
v 0.383373 0.000000 -0.381250
v 0.437500 1.800000 -0.350000
v 0.375000 1.862500 -0.412500
v 0.406250 1.808373 -0.358373
v 0.383373 1.831250 -0.381250
v 0.375000 0.000000 0.412500
v 0.437500 0.000000 0.350000
v 0.383373 0.000000 0.381250
v 0.406250 0.000000 0.358373
v 0.375000 1.862500 0.412500
v 0.437500 1.800000 0.350000
v 0.383373 1.831250 0.381250
v 0.406250 1.808373 0.358373
vt -0.500000 2.340000
vt 1.500000 2.340000
vt 1.500000 3.000000
vt -0.500000 3.000000
vt 1.000000 0.000000
vt 1.000000 0.000000
vt 1.000000 1.000000
vt 1.000000 1.000000
vt 0.150000 0.923077
vt 0.850000 0.923077
vt 0.850000 0.923077
vt 0.150000 0.923077
vt 0.850000 0.000000
vt 0.850000 0.000000
vt 0.000000 1.000000
vt 0.087500 0.955128
vt 0.912500 0.955128
vt 0.000000 0.000000
vt 0.000000 0.000000
vt 0.000000 1.000000
vt 0.087500 0.000000
vt 0.118750 0.000000
vt 0.118750 0.939103
vt 0.141627 0.000000
vt 0.141627 0.927371
vt 0.150000 0.000000
vt 0.858373 0.000000
vt 0.858373 0.927371
vt 0.881250 0.000000
vt 0.881250 0.939103
vt 0.912500 0.000000
vt 0.150000 0.000000
vn -1.0000 0.0000 0.0000
vn 0.0000 0.0000 1.0000
vn 0.0000 -1.0000 0.0000
vn 0.0000 0.0000 -1.0000
vn 0.0000 1.0000 0.0000
vn -0.9659 0.0000 0.2588
vn -0.7071 0.0000 0.7071
vn -0.2588 0.0000 0.9659
vn -0.2588 -0.0000 -0.9659
vn -0.7071 0.0000 -0.7071
vn -0.9659 0.0000 -0.2588
vn -0.2588 -0.9659 0.0000
vn -0.7071 -0.7071 0.0000
vn -0.9659 -0.2588 0.0000
usemtl WallTex
s off
f 13/1/1 14/2/1 16/3/1 15/4/1
usemtl DoorTex
f 8/5/2 1/6/2 11/7/2 12/8/2
f 4/9/3 7/10/3 30/11/3 21/12/3
f 26/13/4 30/11/4 7/10/4 6/14/4
f 12/8/1 10/15/1 22/16/1 29/17/1
f 2/18/4 5/19/4 10/15/4 9/20/4
f 10/15/5 12/8/5 11/7/5 9/20/5
f 22/16/6 18/21/6 20/22/6 24/23/6
f 24/23/7 20/22/7 19/24/7 23/25/7
f 23/25/8 19/24/8 17/26/8 21/12/8
f 30/11/9 26/13/9 28/27/9 32/28/9
f 32/28/10 28/27/10 27/29/10 31/30/10
f 31/30/11 27/29/11 25/31/11 29/17/11
f 21/12/12 30/11/12 32/28/12 23/25/12
f 23/25/13 32/28/13 31/30/13 24/23/13
f 24/23/14 31/30/14 29/17/14 22/16/14
f 3/32/2 4/9/2 21/12/2 17/26/2
f 29/17/1 25/31/1 8/5/1 12/8/1
f 22/16/1 10/15/1 5/19/1 18/21/1
