# Blender 3.3.5
# www.blender.org
mtllib Table.mtl
o Cube
v -0.600000 0.000000 0.600000
v 0.600000 0.000000 -0.600000
v -0.600000 0.000000 -0.600000
v 0.750000 0.000000 0.750000
v 0.600000 0.000000 0.750000
v -0.600000 0.000000 0.750000
v 0.750000 0.850000 -0.750000
v 0.750000 0.850000 -0.600000
v 0.600000 0.850000 0.600000
v 0.750000 0.850000 0.600000
v -0.875000 0.850000 -0.750000
v -0.750000 0.850000 -0.875000
v -0.750000 1.000000 -0.875000
v -0.600000 0.000000 -0.750000
v -0.750000 0.850000 0.600000
v -0.600000 0.850000 0.750000
v -0.750000 0.850000 0.750000
v -0.750000 1.000000 -0.750000
v 0.750000 0.850000 0.875000
v -0.875000 0.850000 0.750000
v 0.750000 0.850000 -0.875000
v 0.875000 0.850000 0.750000
v 0.875000 0.850000 -0.750000
v 0.875000 1.000000 -0.750000
v 0.600000 0.000000 0.600000
v -0.750000 0.000000 0.750000
v 0.750000 0.000000 -0.600000
v -0.750000 0.000000 0.600000
v 0.600000 0.850000 0.750000
v -0.600000 0.850000 -0.600000
v -0.600000 0.850000 -0.750000
v -0.750000 0.850000 -0.750000
v -0.750000 1.000000 0.750000
v 0.750000 1.000000 0.750000
v 0.875000 1.000000 0.750000
v -0.750000 1.000000 0.875000
v 0.750000 1.000000 0.875000
v -0.750000 0.000000 -0.750000
v 0.750000 0.000000 -0.750000
v 0.750000 0.000000 0.600000
v -0.750000 0.000000 -0.600000
v 0.600000 0.000000 -0.750000
v 0.600000 0.850000 -0.600000
v 0.600000 0.850000 -0.750000
v 0.750000 0.850000 0.750000
v -0.600000 0.850000 0.600000
v -0.750000 0.850000 -0.600000
v 0.750000 1.000000 -0.750000
v 0.750000 1.000000 -0.875000
v -0.750000 0.850000 0.875000
v -0.875000 1.000000 -0.750000
v -0.875000 1.000000 0.750000
vn -1.0000 -0.0000 -0.0000
vn 1.0000 -0.0000 -0.0000
vn -0.0000 -1.0000 -0.0000
vn -0.0000 -0.0000 1.0000
vn -0.0000 -0.0000 -1.0000
vn -0.0000 1.0000 -0.0000
vn 0.7071 -0.0000 -0.7071
vn -0.7071 -0.0000 -0.7071
vn -0.7071 -0.0000 0.7071
vn 0.7071 -0.0000 0.7071
vt 0.756002 0.443502
vt 0.798686 0.486186
vt 0.756002 0.486186
vt 0.804021 0.438166
vt 0.798686 0.438166
vt 0.756002 0.438166
vt 0.278748 0.522888
vt 0.804021 0.491521
vt 0.804021 0.486186
vt 0.798686 0.443502
vt 0.804021 0.443502
vt 0.746220 0.491521
vt 0.750666 0.495968
vt 0.750666 0.495968
vt 0.756002 0.491521
vt 0.750666 0.443502
vt 0.756002 0.438166
vt 0.217346 0.461487
vt 0.750666 0.438166
vt 0.217346 0.522888
vt 0.750666 0.491521
vt 0.804021 0.433720
vt 0.746220 0.438166
vt 0.804021 0.495968
vt 0.808468 0.438166
vt 0.808468 0.491521
vt 0.808468 0.491521
vt 0.798686 0.443502
vt 0.750666 0.438166
vt 0.804021 0.486186
vt 0.750666 0.443502
vt 0.798686 0.438166
vt 0.756002 0.486186
vt 0.756002 0.491521
vt 0.217346 0.522888
vt 0.750666 0.491521
vt 0.217346 0.461487
vt 0.750666 0.438166
vt 0.278748 0.461487
vt 0.804021 0.438166
vt 0.808468 0.438166
vt 0.750666 0.433720
vt 0.804021 0.433720
vt 0.750666 0.491521
vt 0.804021 0.491521
vt 0.804021 0.443502
vt 0.750666 0.486186
vt 0.798686 0.491521
vt 0.798686 0.486186
vt 0.798686 0.491521
vt 0.278748 0.461487
vt 0.804021 0.438166
vt 0.756002 0.443502
vt 0.750666 0.486186
vt 0.278748 0.522888
vt 0.804021 0.491521
vt 0.804021 0.495968
vt 0.750666 0.433720
vt 0.746220 0.491521
vt 0.746220 0.438166
s 0
usemtl TableTex
f 2/2/1 44/50/1 42/48/1
f 5/5/1 9/10/1 25/28/1
f 14/15/2 30/33/2 3/3/2
f 40/46/2 45/52/2 4/4/2
f 45/51/3 32/35/3 7/7/3
f 3/3/4 47/54/4 41/47/4
f 1/1/2 16/17/2 6/6/2
f 42/48/5 7/8/5 39/45/5
f 41/47/1 32/36/1 38/44/1
f 6/6/4 17/19/4 26/29/4
f 39/45/2 8/9/2 27/30/2
f 14/15/5 32/36/5 31/34/5
f 26/29/1 15/16/1 28/31/1
f 27/30/4 43/49/4 2/2/4
f 28/31/5 46/53/5 1/1/5
f 25/28/5 10/11/5 40/46/5
f 4/4/4 29/32/4 5/5/4
f 18/20/6 34/39/6 48/55/6
f 17/19/3 11/12/3 32/36/3
f 32/36/3 21/24/3 7/8/3
f 20/23/1 51/59/1 11/12/1
f 33/38/6 51/59/6 52/60/6
f 12/13/5 49/57/5 21/24/5
f 48/56/6 13/14/6 18/21/6
f 23/26/2 35/41/2 22/25/2
f 34/40/6 24/27/6 48/56/6
f 45/52/3 23/26/3 22/25/3
f 23/26/3 7/8/3 21/24/3
f 19/22/4 36/42/4 50/58/4
f 36/42/2 17/19/2 33/38/2
f 45/52/3 50/58/3 17/19/3
f 48/56/6 24/27/6 49/57/6
f 21/24/7 24/27/7 23/26/7
f 12/13/3 32/36/3 11/12/3
f 45/52/4 35/41/4 34/40/4
f 18/21/6 13/14/6 51/59/6
f 11/12/8 13/14/8 12/13/8
f 33/38/6 37/43/6 34/40/6
f 20/23/3 17/19/3 50/58/3
f 49/57/1 7/8/1 48/56/1
f 33/38/6 52/60/6 36/42/6
f 20/23/9 36/42/9 52/60/9
f 19/22/3 45/52/3 22/25/3
f 51/59/4 32/36/4 18/21/4
f 34/40/6 37/43/6 35/41/6
f 19/22/10 35/41/10 37/43/10
f 2/2/1 43/49/1 44/50/1
f 5/5/1 29/32/1 9/10/1
f 14/15/2 31/34/2 30/33/2
f 40/46/2 10/11/2 45/52/2
f 45/51/3 17/18/3 32/35/3
f 3/3/4 30/33/4 47/54/4
f 1/1/2 46/53/2 16/17/2
f 42/48/5 44/50/5 7/8/5
f 41/47/1 47/54/1 32/36/1
f 6/6/4 16/17/4 17/19/4
f 39/45/2 7/8/2 8/9/2
f 14/15/5 38/44/5 32/36/5
f 26/29/1 17/19/1 15/16/1
f 27/30/4 8/9/4 43/49/4
f 28/31/5 15/16/5 46/53/5
f 25/28/5 9/10/5 10/11/5
f 4/4/4 45/52/4 29/32/4
f 18/20/6 33/37/6 34/39/6
f 17/19/3 20/23/3 11/12/3
f 32/36/3 12/13/3 21/24/3
f 20/23/1 52/60/1 51/59/1
f 33/38/6 18/21/6 51/59/6
f 12/13/5 13/14/5 49/57/5
f 48/56/6 49/57/6 13/14/6
f 23/26/2 24/27/2 35/41/2
f 34/40/6 35/41/6 24/27/6
f 45/52/3 7/8/3 23/26/3
f 19/22/4 37/43/4 36/42/4
f 36/42/2 50/58/2 17/19/2
f 45/52/3 19/22/3 50/58/3
f 21/24/7 49/57/7 24/27/7
f 45/52/4 22/25/4 35/41/4
f 11/12/8 51/59/8 13/14/8
f 33/38/6 36/42/6 37/43/6
f 49/57/1 21/24/1 7/8/1
f 20/23/9 50/58/9 36/42/9
f 51/59/4 11/12/4 32/36/4
f 19/22/10 22/25/10 35/41/10
